<mxfile host="app.diagrams.net" modified="2024-06-27T19:15:46.759Z" agent="Mozilla/5.0 (Windows NT 10.0; Win64; x64) AppleWebKit/537.36 (KHTML, like Gecko) Chrome/126.0.0.0 Safari/537.36" etag="3pufKgu3KE5uFF0320OO" version="24.2.7" type="google">
  <diagram name="Pagina-1" id="iytFDDpYraWn33BoyVsO">
    <mxGraphModel grid="1" page="1" gridSize="10" guides="1" tooltips="1" connect="1" arrows="1" fold="1" pageScale="1" pageWidth="827" pageHeight="1169" math="0" shadow="0">
      <root>
        <mxCell id="0" />
        <mxCell id="1" parent="0" />
        <mxCell id="CVr9qrRJcp9obrrfCHN_-17" style="edgeStyle=orthogonalEdgeStyle;rounded=0;orthogonalLoop=1;jettySize=auto;html=1;exitX=0.5;exitY=1;exitDx=0;exitDy=0;" edge="1" parent="1" source="CVr9qrRJcp9obrrfCHN_-1">
          <mxGeometry relative="1" as="geometry">
            <mxPoint x="330" y="510" as="targetPoint" />
          </mxGeometry>
        </mxCell>
        <mxCell id="CVr9qrRJcp9obrrfCHN_-1" value="Auto usate" style="shape=table;startSize=30;container=1;collapsible=0;childLayout=tableLayout;fixedRows=1;rowLines=0;fontStyle=0;strokeColor=default;fontSize=16;" vertex="1" parent="1">
          <mxGeometry x="50" y="70" width="420" height="390" as="geometry" />
        </mxCell>
        <mxCell id="CVr9qrRJcp9obrrfCHN_-2" value="" style="shape=tableRow;horizontal=0;startSize=0;swimlaneHead=0;swimlaneBody=0;top=0;left=0;bottom=0;right=0;collapsible=0;dropTarget=0;fillColor=none;points=[[0,0.5],[1,0.5]];portConstraint=eastwest;strokeColor=inherit;fontSize=16;" vertex="1" parent="CVr9qrRJcp9obrrfCHN_-1">
          <mxGeometry y="30" width="420" height="30" as="geometry" />
        </mxCell>
        <mxCell id="CVr9qrRJcp9obrrfCHN_-3" value="PK" style="shape=partialRectangle;html=1;whiteSpace=wrap;connectable=0;fillColor=none;top=0;left=0;bottom=0;right=0;overflow=hidden;pointerEvents=1;strokeColor=inherit;fontSize=16;" vertex="1" parent="CVr9qrRJcp9obrrfCHN_-2">
          <mxGeometry width="93" height="30" as="geometry">
            <mxRectangle width="93" height="30" as="alternateBounds" />
          </mxGeometry>
        </mxCell>
        <mxCell id="CVr9qrRJcp9obrrfCHN_-4" value="ID" style="shape=partialRectangle;html=1;whiteSpace=wrap;connectable=0;fillColor=none;top=0;left=0;bottom=0;right=0;align=left;spacingLeft=6;overflow=hidden;strokeColor=inherit;fontSize=16;" vertex="1" parent="CVr9qrRJcp9obrrfCHN_-2">
          <mxGeometry x="93" width="327" height="30" as="geometry">
            <mxRectangle width="327" height="30" as="alternateBounds" />
          </mxGeometry>
        </mxCell>
        <mxCell id="CVr9qrRJcp9obrrfCHN_-5" value="" style="shape=tableRow;horizontal=0;startSize=0;swimlaneHead=0;swimlaneBody=0;top=0;left=0;bottom=0;right=0;collapsible=0;dropTarget=0;fillColor=none;points=[[0,0.5],[1,0.5]];portConstraint=eastwest;strokeColor=inherit;fontSize=16;" vertex="1" parent="CVr9qrRJcp9obrrfCHN_-1">
          <mxGeometry y="60" width="420" height="30" as="geometry" />
        </mxCell>
        <mxCell id="CVr9qrRJcp9obrrfCHN_-6" value="" style="shape=partialRectangle;html=1;whiteSpace=wrap;connectable=0;fillColor=none;top=0;left=0;bottom=0;right=0;overflow=hidden;strokeColor=inherit;fontSize=16;" vertex="1" parent="CVr9qrRJcp9obrrfCHN_-5">
          <mxGeometry width="93" height="30" as="geometry">
            <mxRectangle width="93" height="30" as="alternateBounds" />
          </mxGeometry>
        </mxCell>
        <mxCell id="CVr9qrRJcp9obrrfCHN_-7" value="Nome VARCHAR(20)" style="shape=partialRectangle;html=1;whiteSpace=wrap;connectable=0;fillColor=none;top=0;left=0;bottom=0;right=0;align=left;spacingLeft=6;overflow=hidden;strokeColor=inherit;fontSize=16;" vertex="1" parent="CVr9qrRJcp9obrrfCHN_-5">
          <mxGeometry x="93" width="327" height="30" as="geometry">
            <mxRectangle width="327" height="30" as="alternateBounds" />
          </mxGeometry>
        </mxCell>
        <mxCell id="CVr9qrRJcp9obrrfCHN_-8" value="" style="shape=tableRow;horizontal=0;startSize=0;swimlaneHead=0;swimlaneBody=0;top=0;left=0;bottom=0;right=0;collapsible=0;dropTarget=0;fillColor=none;points=[[0,0.5],[1,0.5]];portConstraint=eastwest;strokeColor=inherit;fontSize=16;" vertex="1" parent="CVr9qrRJcp9obrrfCHN_-1">
          <mxGeometry y="90" width="420" height="30" as="geometry" />
        </mxCell>
        <mxCell id="CVr9qrRJcp9obrrfCHN_-9" value="" style="shape=partialRectangle;html=1;whiteSpace=wrap;connectable=0;fillColor=none;top=0;left=0;bottom=0;right=0;overflow=hidden;strokeColor=inherit;fontSize=16;" vertex="1" parent="CVr9qrRJcp9obrrfCHN_-8">
          <mxGeometry width="93" height="30" as="geometry">
            <mxRectangle width="93" height="30" as="alternateBounds" />
          </mxGeometry>
        </mxCell>
        <mxCell id="CVr9qrRJcp9obrrfCHN_-10" value="Modello VARCHAR(10)" style="shape=partialRectangle;html=1;whiteSpace=wrap;connectable=0;fillColor=none;top=0;left=0;bottom=0;right=0;align=left;spacingLeft=6;overflow=hidden;strokeColor=inherit;fontSize=16;" vertex="1" parent="CVr9qrRJcp9obrrfCHN_-8">
          <mxGeometry x="93" width="327" height="30" as="geometry">
            <mxRectangle width="327" height="30" as="alternateBounds" />
          </mxGeometry>
        </mxCell>
        <mxCell id="CVr9qrRJcp9obrrfCHN_-11" value="" style="shape=partialRectangle;html=1;whiteSpace=wrap;connectable=0;fillColor=none;top=0;left=0;bottom=0;right=0;overflow=hidden;strokeColor=inherit;fontSize=16;" vertex="1" parent="1">
          <mxGeometry x="50" y="190" width="124" height="30" as="geometry">
            <mxRectangle width="124" height="30" as="alternateBounds" />
          </mxGeometry>
        </mxCell>
        <mxCell id="CVr9qrRJcp9obrrfCHN_-12" value="&lt;font size=&quot;1&quot; face=&quot;arial, sans-serif&quot;&gt;&lt;span style=&quot;background-color: rgb(255, 255, 255); font-size: 16px;&quot;&gt;Casa automobilistica VARCHAR(15)&lt;/span&gt;&lt;/font&gt;" style="shape=partialRectangle;html=1;whiteSpace=wrap;connectable=0;fillColor=none;top=0;left=0;bottom=0;right=0;align=left;spacingLeft=6;overflow=hidden;strokeColor=inherit;fontSize=16;" vertex="1" parent="1">
          <mxGeometry x="140" y="190" width="436" height="30" as="geometry">
            <mxRectangle width="436" height="30" as="alternateBounds" />
          </mxGeometry>
        </mxCell>
        <mxCell id="CVr9qrRJcp9obrrfCHN_-13" value="&lt;font size=&quot;1&quot; face=&quot;arial, sans-serif&quot;&gt;&lt;span style=&quot;background-color: rgb(255, 255, 255); font-size: 16px;&quot;&gt;Targa CHAR(7)&lt;/span&gt;&lt;/font&gt;" style="shape=partialRectangle;html=1;whiteSpace=wrap;connectable=0;fillColor=none;top=0;left=0;bottom=0;right=0;align=left;spacingLeft=6;overflow=hidden;strokeColor=inherit;fontSize=16;" vertex="1" parent="1">
          <mxGeometry x="140" y="220" width="436" height="30" as="geometry">
            <mxRectangle width="436" height="30" as="alternateBounds" />
          </mxGeometry>
        </mxCell>
        <mxCell id="CVr9qrRJcp9obrrfCHN_-14" value="&lt;font size=&quot;1&quot; face=&quot;arial, sans-serif&quot;&gt;&lt;span style=&quot;background-color: rgb(255, 255, 255); font-size: 16px;&quot;&gt;Numero porte TINYINT&lt;/span&gt;&lt;/font&gt;" style="shape=partialRectangle;html=1;whiteSpace=wrap;connectable=0;fillColor=none;top=0;left=0;bottom=0;right=0;align=left;spacingLeft=6;overflow=hidden;strokeColor=inherit;fontSize=16;" vertex="1" parent="1">
          <mxGeometry x="140" y="250" width="436" height="30" as="geometry">
            <mxRectangle width="436" height="30" as="alternateBounds" />
          </mxGeometry>
        </mxCell>
        <mxCell id="CVr9qrRJcp9obrrfCHN_-15" value="&lt;font size=&quot;1&quot; face=&quot;arial, sans-serif&quot;&gt;&lt;span style=&quot;background-color: rgb(255, 255, 255); font-size: 16px;&quot;&gt;Carburante VARCHAR(15)&lt;span style=&quot;white-space: pre;&quot;&gt;&#x9;&lt;/span&gt;&lt;span style=&quot;white-space: pre;&quot;&gt;&#x9;&lt;/span&gt;&lt;/span&gt;&lt;/font&gt;" style="shape=partialRectangle;html=1;whiteSpace=wrap;connectable=0;fillColor=none;top=0;left=0;bottom=0;right=0;align=left;spacingLeft=6;overflow=hidden;strokeColor=inherit;fontSize=16;" vertex="1" parent="1">
          <mxGeometry x="140" y="280" width="436" height="30" as="geometry">
            <mxRectangle width="436" height="30" as="alternateBounds" />
          </mxGeometry>
        </mxCell>
        <mxCell id="CVr9qrRJcp9obrrfCHN_-16" value="&lt;font size=&quot;1&quot; face=&quot;arial, sans-serif&quot;&gt;&lt;span style=&quot;background-color: rgb(255, 255, 255); font-size: 16px;&quot;&gt;Posti TINYINT&lt;/span&gt;&lt;/font&gt;" style="shape=partialRectangle;html=1;whiteSpace=wrap;connectable=0;fillColor=none;top=0;left=0;bottom=0;right=0;align=left;spacingLeft=6;overflow=hidden;strokeColor=inherit;fontSize=16;" vertex="1" parent="1">
          <mxGeometry x="140" y="310" width="436" height="30" as="geometry">
            <mxRectangle width="436" height="30" as="alternateBounds" />
          </mxGeometry>
        </mxCell>
      </root>
    </mxGraphModel>
  </diagram>
</mxfile>
